{
    "asset" : {
        "generator" : "Khronos glTF Blender I/O v3.3.27",
        "version" : "2.0"
    },
    "extensionsUsed" : [
        "KHR_materials_emissive_strength"
    ],
    "scene" : 0,
    "scenes" : [
        {
            "name" : "Scene",
            "nodes" : [
                0,
                1,
                2
            ]
        }
    ],
    "nodes" : [
        {
            "mesh" : 0,
            "name" : "Cylinder",
            "scale" : [
                0.6692053079605103,
                0.6692053079605103,
                0.6692053079605103
            ],
            "translation" : [
                -2.0937280654907227,
                0,
                -2.0571017265319824
            ]
        },
        {
            "mesh" : 1,
            "name" : "BezierCurve",
            "rotation" : [
                0.21985311806201935,
                0.21985310316085815,
                0.672059953212738,
                0.6720600128173828
            ],
            "scale" : [
                0.30806607007980347,
                0.30806607007980347,
                0.30806607007980347
            ],
            "translation" : [
                -2.0834834575653076,
                1.7450153827667236,
                -1.9889400005340576
            ]
        },
        {
            "mesh" : 2,
            "name" : "Cylinder.001",
            "scale" : [
                -0.09547109156847,
                -0.5436318516731262,
                -0.09547109156847
            ],
            "translation" : [
                -2.1103453636169434,
                1.885494589805603,
                -2.0297818183898926
            ]
        }
    ],
    "materials" : [
        {
            "doubleSided" : true,
            "name" : "Material.002",
            "pbrMetallicRoughness" : {
                "baseColorFactor" : [
                    0.15592648088932037,
                    0.12213879823684692,
                    0.08650045096874237,
                    1
                ],
                "metallicFactor" : 0,
                "roughnessFactor" : 0.5
            }
        },
        {
            "doubleSided" : true,
            "name" : "Material.003",
            "pbrMetallicRoughness" : {
                "baseColorFactor" : [
                    0,
                    0,
                    0,
                    1
                ],
                "metallicFactor" : 0,
                "roughnessFactor" : 0.5
            }
        },
        {
            "doubleSided" : true,
            "emissiveFactor" : [
                1,
                1,
                1
            ],
            "extensions" : {
                "KHR_materials_emissive_strength" : {
                    "emissiveStrength" : 31.599998474121094
                }
            },
            "name" : "Material.001",
            "pbrMetallicRoughness" : {
                "baseColorFactor" : [
                    0,
                    0,
                    0,
                    1
                ]
            }
        }
    ],
    "meshes" : [
        {
            "name" : "Cylinder",
            "primitives" : [
                {
                    "attributes" : {
                        "POSITION" : 0,
                        "NORMAL" : 1,
                        "TEXCOORD_0" : 2
                    },
                    "indices" : 3,
                    "material" : 0
                }
            ]
        },
        {
            "name" : "BezierCurve",
            "primitives" : [
                {
                    "attributes" : {
                        "POSITION" : 4,
                        "NORMAL" : 5,
                        "TEXCOORD_0" : 6
                    },
                    "indices" : 7,
                    "material" : 1
                }
            ]
        },
        {
            "name" : "Cylinder.001",
            "primitives" : [
                {
                    "attributes" : {
                        "POSITION" : 8,
                        "NORMAL" : 9
                    },
                    "indices" : 10,
                    "material" : 2
                }
            ]
        }
    ],
    "accessors" : [
        {
            "bufferView" : 0,
            "componentType" : 5126,
            "count" : 18153,
            "max" : [
                1.1306517124176025,
                2.9012742042541504,
                1.1868562698364258
            ],
            "min" : [
                -1.350242257118225,
                -4.295820236206055,
                -1.3705546855926514
            ],
            "type" : "VEC3"
        },
        {
            "bufferView" : 1,
            "componentType" : 5126,
            "count" : 18153,
            "type" : "VEC3"
        },
        {
            "bufferView" : 2,
            "componentType" : 5126,
            "count" : 18153,
            "type" : "VEC2"
        },
        {
            "bufferView" : 3,
            "componentType" : 5123,
            "count" : 107172,
            "type" : "SCALAR"
        },
        {
            "bufferView" : 4,
            "componentType" : 5126,
            "count" : 193,
            "max" : [
                1,
                0.030000001192092896,
                0.030000001192092896
            ],
            "min" : [
                -1.021213173866272,
                -0.030000004917383194,
                -0.2522212266921997
            ],
            "type" : "VEC3"
        },
        {
            "bufferView" : 5,
            "componentType" : 5126,
            "count" : 193,
            "type" : "VEC3"
        },
        {
            "bufferView" : 6,
            "componentType" : 5126,
            "count" : 193,
            "type" : "VEC2"
        },
        {
            "bufferView" : 7,
            "componentType" : 5123,
            "count" : 924,
            "type" : "SCALAR"
        },
        {
            "bufferView" : 8,
            "componentType" : 5126,
            "count" : 30472,
            "max" : [
                0.7920663952827454,
                0.48185116052627563,
                0.9027125835418701
            ],
            "min" : [
                -0.8131951689720154,
                -0.9474619030952454,
                -0.6870223879814148
            ],
            "type" : "VEC3"
        },
        {
            "bufferView" : 9,
            "componentType" : 5126,
            "count" : 30472,
            "type" : "VEC3"
        },
        {
            "bufferView" : 10,
            "componentType" : 5123,
            "count" : 45708,
            "type" : "SCALAR"
        }
    ],
    "bufferViews" : [
        {
            "buffer" : 0,
            "byteLength" : 217836,
            "byteOffset" : 0,
            "target" : 34962
        },
        {
            "buffer" : 0,
            "byteLength" : 217836,
            "byteOffset" : 217836,
            "target" : 34962
        },
        {
            "buffer" : 0,
            "byteLength" : 145224,
            "byteOffset" : 435672,
            "target" : 34962
        },
        {
            "buffer" : 0,
            "byteLength" : 214344,
            "byteOffset" : 580896,
            "target" : 34963
        },
        {
            "buffer" : 0,
            "byteLength" : 2316,
            "byteOffset" : 795240,
            "target" : 34962
        },
        {
            "buffer" : 0,
            "byteLength" : 2316,
            "byteOffset" : 797556,
            "target" : 34962
        },
        {
            "buffer" : 0,
            "byteLength" : 1544,
            "byteOffset" : 799872,
            "target" : 34962
        },
        {
            "buffer" : 0,
            "byteLength" : 1848,
            "byteOffset" : 801416,
            "target" : 34963
        },
        {
            "buffer" : 0,
            "byteLength" : 365664,
            "byteOffset" : 803264,
            "target" : 34962
        },
        {
            "buffer" : 0,
            "byteLength" : 365664,
            "byteOffset" : 1168928,
            "target" : 34962
        },
        {
            "buffer" : 0,
            "byteLength" : 91416,
            "byteOffset" : 1534592,
            "target" : 34963
        }
    ],
    "buffers" : [
        {
            "byteLength" : 1626008,
            "uri" : "data:application/octet-stream;base64,"
        }
    ]
}
