{
    "asset" : {
        "generator" : "Khronos glTF Blender I/O v3.3.27",
        "version" : "2.0"
    },
    "scene" : 0,
    "scenes" : [
        {
            "name" : "Scene",
            "nodes" : [
                0
            ]
        }
    ],
    "nodes" : [
        {
            "mesh" : 0,
            "name" : "Cylinder"
        }
    ],
    "materials" : [
        {
            "doubleSided" : true,
            "name" : "Tshirt",
            "pbrMetallicRoughness" : {
                "baseColorFactor" : [
                    0.005676903761923313,
                    0.13758370280265808,
                    0.00116009172052145,
                    1
                ],
                "metallicFactor" : 0,
                "roughnessFactor" : 0.5
            }
        },
        {
            "doubleSided" : true,
            "name" : "Skin",
            "pbrMetallicRoughness" : {
                "baseColorFactor" : [
                    0.5332766175270081,
                    0.31398868560791016,
                    0.23455063998699188,
                    1
                ],
                "metallicFactor" : 0,
                "roughnessFactor" : 0.5
            }
        },
        {
            "doubleSided" : true,
            "name" : "Pants",
            "pbrMetallicRoughness" : {
                "baseColorFactor" : [
                    0.05780208483338356,
                    0.016955595463514328,
                    0.0019257282838225365,
                    1
                ],
                "metallicFactor" : 0,
                "roughnessFactor" : 0.5
            }
        }
    ],
    "meshes" : [
        {
            "name" : "Cylinder",
            "primitives" : [
                {
                    "attributes" : {
                        "POSITION" : 0,
                        "NORMAL" : 1,
                        "TEXCOORD_0" : 2
                    },
                    "indices" : 3,
                    "material" : 0
                },
                {
                    "attributes" : {
                        "POSITION" : 4,
                        "NORMAL" : 5,
                        "TEXCOORD_0" : 6
                    },
                    "indices" : 7,
                    "material" : 1
                },
                {
                    "attributes" : {
                        "POSITION" : 8,
                        "NORMAL" : 9,
                        "TEXCOORD_0" : 10
                    },
                    "indices" : 11,
                    "material" : 2
                }
            ]
        }
    ],
    "accessors" : [
        {
            "bufferView" : 0,
            "componentType" : 5126,
            "count" : 560,
            "max" : [
                1.6677013635635376,
                3.335644245147705,
                0.9070267081260681
            ],
            "min" : [
                -1.6677013635635376,
                -0.5122479796409607,
                -0.4957849383354187
            ],
            "type" : "VEC3"
        },
        {
            "bufferView" : 1,
            "componentType" : 5126,
            "count" : 560,
            "type" : "VEC3"
        },
        {
            "bufferView" : 2,
            "componentType" : 5126,
            "count" : 560,
            "type" : "VEC2"
        },
        {
            "bufferView" : 3,
            "componentType" : 5123,
            "count" : 840,
            "type" : "SCALAR"
        },
        {
            "bufferView" : 4,
            "componentType" : 5126,
            "count" : 2198,
            "max" : [
                2.5281293392181396,
                5.124398708343506,
                0.7331178784370422
            ],
            "min" : [
                -2.5281293392181396,
                -5.413942337036133,
                -0.826614260673523
            ],
            "type" : "VEC3"
        },
        {
            "bufferView" : 5,
            "componentType" : 5126,
            "count" : 2198,
            "type" : "VEC3"
        },
        {
            "bufferView" : 6,
            "componentType" : 5126,
            "count" : 2198,
            "type" : "VEC2"
        },
        {
            "bufferView" : 7,
            "componentType" : 5123,
            "count" : 3318,
            "type" : "SCALAR"
        },
        {
            "bufferView" : 8,
            "componentType" : 5126,
            "count" : 456,
            "max" : [
                0.994759202003479,
                -0.39868825674057007,
                0.8587234020233154
            ],
            "min" : [
                -0.994759202003479,
                -5.1422929763793945,
                -0.43041491508483887
            ],
            "type" : "VEC3"
        },
        {
            "bufferView" : 9,
            "componentType" : 5126,
            "count" : 456,
            "type" : "VEC3"
        },
        {
            "bufferView" : 10,
            "componentType" : 5126,
            "count" : 456,
            "type" : "VEC2"
        },
        {
            "bufferView" : 11,
            "componentType" : 5123,
            "count" : 684,
            "type" : "SCALAR"
        }
    ],
    "bufferViews" : [
        {
            "buffer" : 0,
            "byteLength" : 6720,
            "byteOffset" : 0,
            "target" : 34962
        },
        {
            "buffer" : 0,
            "byteLength" : 6720,
            "byteOffset" : 6720,
            "target" : 34962
        },
        {
            "buffer" : 0,
            "byteLength" : 4480,
            "byteOffset" : 13440,
            "target" : 34962
        },
        {
            "buffer" : 0,
            "byteLength" : 1680,
            "byteOffset" : 17920,
            "target" : 34963
        },
        {
            "buffer" : 0,
            "byteLength" : 26376,
            "byteOffset" : 19600,
            "target" : 34962
        },
        {
            "buffer" : 0,
            "byteLength" : 26376,
            "byteOffset" : 45976,
            "target" : 34962
        },
        {
            "buffer" : 0,
            "byteLength" : 17584,
            "byteOffset" : 72352,
            "target" : 34962
        },
        {
            "buffer" : 0,
            "byteLength" : 6636,
            "byteOffset" : 89936,
            "target" : 34963
        },
        {
            "buffer" : 0,
            "byteLength" : 5472,
            "byteOffset" : 96572,
            "target" : 34962
        },
        {
            "buffer" : 0,
            "byteLength" : 5472,
            "byteOffset" : 102044,
            "target" : 34962
        },
        {
            "buffer" : 0,
            "byteLength" : 3648,
            "byteOffset" : 107516,
            "target" : 34962
        },
        {
            "buffer" : 0,
            "byteLength" : 1368,
            "byteOffset" : 111164,
            "target" : 34963
        }
    ],
    "buffers" : [
        {
            "byteLength" : 112532,
            "uri" : "data:application/octet-stream;base64,"
        }
    ]
}
